<svg xmlns="http://www.w3.org/2000/svg" viewBox="0 0 357.8 102.8"><path d="M19.5 85c-3.8-4.1-3.2-7.6-2.2-10.1.2-.4.4-.9.7-1.3.3-.4.8-1 .3-1.5s-1.2.1-1.5.3c-.4.2-.9.5-1.3.7-2.5 1.1-6 1.6-10.1-2.2C3.3 69 2.1 66.3 2 63.5c.1-3.1 1.7-6.1 4.3-7.9s5.9-2.6 9-2.3h18c2.1 0 3.8 1.7 3.9 3.8v18c.3 3.2-.5 6.4-2.3 9s-4.8 4.2-7.9 4.3c-2.9 0-5.6-1.3-7.5-3.4m39.1 0c3.8-4.1 3.2-7.6 2.2-10.1-.2-.4-.4-.9-.7-1.3s-.8-1-.3-1.5 1.2.1 1.5.3c.4.2.9.5 1.3.7 2.5 1.1 6 1.6 10.1-2.2 2.2-1.9 3.3-4.6 3.4-7.4-.1-3.2-1.7-6.1-4.3-7.9s-5.8-2.6-9-2.4h-18c-2.1 0-3.8 1.7-3.8 3.9v18c-.3 3.1.5 6.4 2.3 9 1.8 2.6 4.8 4.2 7.9 4.3 2.9 0 5.5-1.3 7.4-3.4M19.5 17.8c-3.8 4-3.2 7.6-2.2 10.1.2.4.4.9.7 1.3.3.4.8 1 .3 1.5s-1.2-.1-1.5-.3c-.4-.2-.9-.5-1.3-.7-2.5-1.1-6-1.6-10.1 2.2-2.2 1.9-3.4 4.6-3.5 7.5.1 3.2 1.7 6.1 4.3 7.9 2.6 1.8 5.9 2.6 9 2.3h18c2.1 0 3.9-1.7 3.9-3.9v-18c.3-3.1-.5-6.3-2.3-9-1.8-2.6-4.8-4.2-7.9-4.3-2.8 0-5.5 1.3-7.4 3.4m39.1 0c3.8 4 3.2 7.6 2.2 10.1-.2.4-.4.9-.7 1.3-.3.4-.8 1-.3 1.5s1.2-.1 1.5-.3c.4-.2.9-.5 1.3-.7 2.5-1.1 6-1.6 10.1 2.2 2.2 1.9 3.4 4.6 3.4 7.4-.1 3.1-1.7 6.1-4.3 7.9-2.7 1.8-5.8 2.6-9 2.3h-18c-2.1 0-3.8-1.7-3.8-3.8v-18c-.3-3.1.5-6.4 2.3-9s4.8-4.2 7.9-4.3c2.9 0 5.6 1.3 7.4 3.4" fill="#d2d700"/><path d="M127.1 20.5c-2.2-4.4-7.7-6.2-12.1-4-1.7.9-3.2 2.2-4 4L84 74.3c-2.2 4.5-.2 9.8 4.2 12 4.3 2.1 9.5.4 11.8-4l2-4.1h33.8c1.3 2.5 2 4.1 2 4.1 2.3 4.4 7.7 6 12.2 3.8 4.2-2.2 5.9-7.5 4-11.8l-26.9-53.8zm-16 39.9l7.9-15.8c2.5 5 5.3 10.5 7.9 15.8h-15.8zm74.3-44.8h-17.9c-4.9 0-9 4.1-9 9v53.7c0 4.9 4.1 9 9 9h17.9c19.8 0 35.8-16 35.8-35.8 0-19.9-16-35.9-35.8-35.9m0 53.7h-9V33.5h9c9.9-.2 18.1 7.6 18.3 17.5s-7.6 18.1-17.6 18.3h-.7m85.1-35.8c4.9 0 9-4.1 9-9s-4.1-9-9-9h-35.9c-4.9 0-9 4.1-9 9v53.7c0 4.9 4.1 9 9 9h35.9c4.9.2 9.1-3.8 9.2-8.7.1-4.9-3.8-9.1-8.7-9.2h-27.4v-9h26.9c4.9.2 9.1-3.8 9.2-8.7.2-5-3.8-9.1-8.7-9.2h-27.4v-9l26.9.1zm75.4 9H319c-4.9-.2-9.1 3.8-9.2 8.7-.1 5 3.8 9.1 8.7 9.2h16c-5 8.6-15.9 11.3-24.4 6.4-8.5-5-11.3-15.9-6.4-24.4 5-8.5 15.9-11.3 24.4-6.4.4.2.6.4 1 .6 4.1 2.8 9.6 1.8 12.5-2.2 2.8-4 1.8-9.6-2.2-12.5-.1 0-.1-.1-.2-.1-16.4-11.1-38.7-6.7-49.8 9.7-11.1 16.4-6.7 38.7 9.7 49.8s38.7 6.7 49.8-9.7c4-5.9 6.1-12.9 6.1-20-.1-5.1-4.1-9.1-9.1-9.1" fill="#23872d"/></svg>