<?xml version="1.0" encoding="UTF-8"?> <!-- Generator: Adobe Illustrator 16.0.3, SVG Export Plug-In . SVG Version: 6.00 Build 0) --> <svg xmlns="http://www.w3.org/2000/svg" xmlns:xlink="http://www.w3.org/1999/xlink" version="1.0" id="Layer_1" x="0px" y="0px" width="1133.86px" height="283.465px" viewBox="0 0 1133.86 283.465" xml:space="preserve"> <rect fill="#00574F" width="1133.858" height="283.465"></rect> <g> <path fill="#FFD300" d="M263.303,230.376h-51.616V53.089h51.616V230.376z M346.923,183.618V53.089h-51.615v177.287H329.8h17.123 h34.492v-46.758H346.923z M454.812,183.618V53.089h-51.616v177.287h34.494h17.122h34.494v-46.758H454.812z M643.317,230.376H590.82 l-3.557-24.617h-27.022l-3.562,24.617h-52.497l36.491-177.287h32.29h31.521L643.317,230.376z M585.396,172.672l-9.068-50.865 h-5.029l-9.091,50.865H585.396z M188.834,181.508c0.247-15.539-5.118-29.915-16.754-39.788 c7.699-10.306,12.243-23.125,12.236-36.553v-0.002c0-26.225-18.339-46.055-43.433-50.483c-6.445-1.138-11.06-1.597-19.972-1.597 H52.116h-0.501v52.08v76.343v48.868h88.352c26.986,0,48.866-21.879,48.868-48.864V181.508z M134.81,108.751 c0,5.812-4.657,10.518-10.394,10.518H103.23V98.236h21.185C130.153,98.236,134.81,102.944,134.81,108.751 M126.491,162.465 c5.744,0,10.399,4.711,10.399,10.519c0,5.809-4.655,10.515-10.399,10.515h-23.26v-21.033H126.491z"></path> <polygon fill="#FFD300" points="1082.243,230.375 682.438,230.375 643.196,53.088 1082.243,53.083 "></polygon> <path fill="#00574F" d="M967.932,175.312l12.163-15.945c6.896,8.24,16.763,13.242,27.168,13.242c7.297,0,13.107-3.379,13.107-9.055 c0-4.459-3.782-7.162-8.646-9.326c-6.22-2.566-14.599-4.863-21.76-8.781c-8.922-4.868-16.086-12.299-16.086-25.275 c0-17.028,14.461-30.001,35.549-30.001c11.756,0,24.192,4.056,33.921,13.244l-11.084,16.625c-5.944-5.812-15.54-8.92-22.568-8.92 c-7.705,0-11.894,3.512-11.894,8.243c0,4.595,4.188,7.027,8.108,8.785c5.272,2.297,14.46,5.539,21.221,8.649 c10.136,4.595,17.978,12.027,17.978,25.408c0,17.972-15.006,31.216-37.981,31.216C991.312,193.42,977.121,187.07,967.932,175.312"></path> <path fill="#00574F" d="M875.896,154.094V91.792h22.435v61.355c0,12.84,7.434,18.65,17.571,18.65 c10.002,0,17.434-5.946,17.434-18.65V91.792h22.437v62.302c0,27.839-18.922,39.327-39.87,39.327 C895.086,193.421,875.896,181.933,875.896,154.094"></path> <polygon fill="#00574F" points="800.413,91.792 822.849,91.792 822.849,170.312 865.464,170.312 865.464,191.663 800.413,191.663 "></polygon> <path fill="#00574F" d="M787.051,125.579c0,17.433-10.678,32.974-37.845,32.974H734.88v33.11l-22.301,0.002V91.792h38.249 C776.914,91.792,787.051,108.415,787.051,125.579 M764.21,125.308c0-6.894-4.867-12.975-13.248-12.975H734.88v26.083h15.137 C759.884,138.416,764.21,131.931,764.21,125.308"></path> </g> </svg> 