<?xml version="1.0" encoding="utf-8"?>
<!-- Generator: Adobe Illustrator 25.0.0, SVG Export Plug-In . SVG Version: 6.00 Build 0)  -->
<svg version="1.1" id="Ebene_1" xmlns="http://www.w3.org/2000/svg" xmlns:xlink="http://www.w3.org/1999/xlink" x="0px" y="0px"
	 viewBox="0 0 566.9 221.7" style="enable-background:new 0 0 566.9 221.7;" xml:space="preserve">
<style type="text/css">
	.st0{fill:#E6007D;}
	.st1{fill:#FFFFFF;}
</style>
<g>
	<rect x="0" class="st0" width="566.9" height="221.7"/>
	<g>
		<g>
			<path class="st1" d="M134.9,120.6H98.6v35.8h37c11,0,21.7-4,21.7-17.6C157.2,127.2,149.3,120.6,134.9,120.6 M98.6,65.9v30.6h37
				c9.7,0,17.4-6.2,17.4-15.4c0-9.2-6.6-15.2-17.4-15.2H98.6z M139.4,180.5H70.3V41.9h65.3c29.8,0,44.8,14.4,44.8,37.5
				c0,11.6-5.3,21-14.6,27.2c12.7,6.2,20.4,17.4,20.4,33.2C186.2,164.5,168.2,180.5,139.4,180.5"/>
		</g>
		<rect x="207.5" y="41.9" class="st1" width="28.3" height="138.6"/>
		<g>
			<path class="st1" d="M290.7,66.5v40.3h30.8c13.1,0,21-6.2,21-20.2c0-14-7.9-20.2-21-20.2H290.7z M322.3,131h-31.6v49.5h-28.3
				V41.9h59.3c31.1,0,49.1,17.6,49.1,44.7C370.8,112.4,351.7,131,322.3,131"/>
		</g>
		<path class="st1" d="M426.9,71.3l20.8,56.9h-41.6L426.9,71.3z M409.1,41.9l-51.9,138.6h30l10.1-27.8h59.4l10.1,27.8h30L444.9,41.9
			H409.1z"/>
	</g>
</g>
<g>
</g>
<g>
</g>
<g>
</g>
<g>
</g>
<g>
</g>
<g>
</g>
</svg>
