<svg xmlns="http://www.w3.org/2000/svg" width="1178.28" height="1178.28" class="c3-icon"><path fill="#DB211B" d="M0 0h1178.28v1178.28H0z"/><path fill="#FFF" d="M271.93 994.28h56.36V836.05H279l-53.54 51-53.56-51h-49.37v158.23h56.35v-84.14l42.47 39.28h8.11l42.47-39.28Zm179.58-106.37c0 16.08-15.12 17.44-27.31 17.44h-21.83v-33.74h22.72c12 0 26.42 2 26.42 16.3m51.37 2.72c.45-42.57-32.56-54.35-56.71-54.35h-98.72v158.06h56v-53.6H446c23.82 0 56.54-13.2 56.93-50.11m114.41-2.72c0 16.08-15.13 17.44-27.32 17.44h-21.87v-33.74h22.71c12 0 26.43 2 26.43 16.3m22.38 38.85c3.72-.1 30.66-5.35 30.66-41.89 0-38.32-26-48.59-63-48.59h-92.82v158.06h56.29v-53.67h13.3c-.14 1 8.66-.7 14.74 13.43 0 0 22.86 40.86 22.94 40.24h61.81c0-.45-27.89-51.11-33.32-58.88s-10.6-8.7-10.6-8.7m56.7 67.58h129.44v-38H750.1V934.8h70.72v-38H750.1v-22.48h74.12v-38H696.37Zm149.64 0h56.19V836.28H846Zm161.42-122.73a142.92 142.92 0 0 1 46.87 7.93V839a269.49 269.49 0 0 0-52.31-5.44c-36 0-81.29 7.7-81.29 51.18 0 61.37 83.1 42.12 83.1 63.41 0 7.92-12.9 10.87-27.17 10.87-18.11 0-38-3.63-54.35-10.41v41a274.48 274.48 0 0 0 65.22 7.47c35.1 0 77-10.64 77-53 0-60.91-83.1-41.44-83.1-62.05 0-10.18 16.53-10.41 26-10.41"/></svg>