<?xml version="1.0" encoding="UTF-8"?><svg id="Ebene_1" xmlns="http://www.w3.org/2000/svg" viewBox="0 0 104.65 130.82"><defs><style>.cls-1{fill:#1d1d1b;}.cls-1,.cls-2,.cls-3{fill-rule:evenodd;}.cls-2{fill:#fff;}.cls-3{fill:#ea5b0c;}</style></defs><path class="cls-3" d="M.21,27.32H25.43c8.19,0,13.6,1.25,19.57,6.67,3.66,3.32,5.37,5.9,7.03,10.56,1.84-4.69,3.65-7.25,7.44-10.56,5.96-5.2,10.7-6.67,19.16-6.67h25.16v25.22c0,7.94-.97,14.18-6.7,20.18-3.23,3.38-5.68,4.94-10.12,6.42,4.45,1.57,6.9,3.17,10.12,6.62,5.61,6.01,6.7,12.35,6.7,19.98v25.08h-25.16c-8.45,0-13.42-1.33-19.43-6.62-3.64-3.2-5.37-5.65-7.17-10.14-1.52,4.45-3.11,6.92-6.53,10.14-6,5.64-11.88,6.62-20.07,6.62H.21v-25.08c0-7.64,1.35-13.46,6.7-19.43,3.31-3.7,5.87-5.44,10.53-7.17-4.64-1.64-7.21-3.34-10.53-6.97C1.46,66.19,.21,60.48,.21,52.54V27.32Z"/><path class="cls-2" d="M10.95,38.08H27.27c7.99,.08,12.73,.76,18.4,5.69,3.17,2.76,4.69,4.85,6.33,8.71,1.76-3.88,3.34-5.98,6.61-8.71,5.68-4.75,10.86-5.87,18.12-5.69h16.35v16.4c-.15,6.35-.4,10.99-4.18,16.4-2.95,4.22-5.51,6.31-10.25,8.33,4.73,1.97,7.3,4.02,10.25,8.2,3.83,5.43,4.15,9.94,4.18,16.53v16.32h-16.35c-7.51,.28-12.4-.95-18.07-5.69-3.28-2.74-4.88-4.82-6.66-8.71-1.61,3.87-3.12,5.96-6.28,8.71-5.67,4.94-10.71,5.59-18.45,5.64H11v-16.27c-.08-7.1,.8-10.96,4.61-16.4,2.87-4.09,5.25-6.13,9.74-8.33-4.47-2.09-6.85-4.07-9.74-8.07-3.96-5.49-4.77-10.1-4.69-16.71l.03-16.35Z"/><path class="cls-1" d="M44.02,91.12c3.59,8.07,4.07,7.95,5.02,8.07,1.91,.24,4.07-6.58,5.38-9.33,1.44-3.05,3.35-8.31,5.2-8.31,2.09,0,.9,10.29,.66,11.3-.42,1.91-3.11,2.27-3.11,4.37,0,3.83,8.19,3.59,10.64,3.59,2.63,0,10.82,.18,10.82-3.83,0-2.69-3.59-1.73-3.77-6.1-.24-5.56-.6-12.14-.6-13.04,0-2.69,.42-9.75,.9-11.42,.6-2.03,3.29-2.51,3.29-4.9,0-3.77-5.98-3.95-8.61-3.95-7.89,0-7.95,1.79-11,7.42-2.15,3.95-4.61,11.18-6.46,10.76-2.63-.6-6.34-10.41-8.43-13.93-1.79-3.05-1.67-4.25-8.67-4.25-4.78,0-10.35,.84-10.35,4.25,0,2.45,3.41,2.87,4.01,4.13,.66,1.38,.9,3.23,.9,6.82,0,8.67-.54,14.23-1.02,19.26-.48,4.9-4.07,2.09-4.07,5.5,0,3.11,5.44,3.29,7.54,3.29,2.33,0,8.73-.12,8.73-3.53,0-3.23-3.83-.24-3.83-6.64,0-1.97-.6-9.87,1.26-9.87,1.08,0,1.73,1.79,2.09,2.57l3.47,7.77Z"/><g><path class="cls-3" d="M9.61,16.99c.59,1.32,1.03,2.26,1.34,2.82,.31,.56,.54,.91,.7,1.03,.16,.12,.32,.18,.46,.18,.32,0,.65-.28,.97-.85,.33-.57,.64-1.23,.94-1.96,.3-.74,.55-1.35,.78-1.84,.24-.53,.5-1.11,.79-1.75,.28-.64,.58-1.19,.89-1.66,.31-.47,.62-.71,.93-.74,.26,.03,.43,.3,.51,.81,.08,.51,.11,1.12,.09,1.82-.02,.7-.06,1.34-.13,1.92-.06,.58-.11,.94-.15,1.1-.08,.31-.25,.56-.5,.76-.25,.2-.48,.4-.7,.6-.22,.21-.34,.48-.36,.82,.04,.62,.41,1.06,1.11,1.31,.69,.25,1.46,.4,2.29,.44,.83,.04,1.47,.05,1.92,.04,.48,.01,1.14,0,1.98-.05,.84-.05,1.61-.21,2.31-.48,.7-.27,1.07-.73,1.11-1.38-.02-.42-.18-.72-.47-.9-.29-.18-.59-.41-.89-.68-.3-.27-.48-.76-.53-1.46-.04-.95-.08-1.89-.13-2.82-.05-.94-.08-1.74-.12-2.42-.03-.68-.05-1.1-.05-1.27,0-.48,.02-1.11,.06-1.89,.04-.78,.09-1.54,.16-2.26,.07-.73,.14-1.24,.22-1.55,.2-.47,.51-.86,.93-1.16,.42-.3,.66-.73,.71-1.29-.03-.62-.3-1.07-.82-1.35-.52-.28-1.11-.46-1.78-.53-.67-.07-1.23-.1-1.7-.09-1.28,0-2.23,.11-2.84,.34-.61,.23-1.09,.62-1.43,1.16-.34,.54-.75,1.28-1.23,2.21-.36,.69-.73,1.46-1.11,2.32-.38,.85-.75,1.58-1.11,2.2-.36,.61-.7,.9-1.01,.86-.45-.15-.93-.66-1.44-1.54-.52-.88-1.02-1.85-1.5-2.89-.49-1.04-.91-1.88-1.26-2.52-.27-.51-.52-.91-.74-1.23-.23-.31-.6-.54-1.11-.68-.51-.14-1.34-.21-2.48-.21-.82,0-1.62,.05-2.4,.17-.78,.12-1.44,.33-1.96,.64C.38,1.36,.11,1.8,.09,2.36c.02,.4,.17,.71,.45,.94,.28,.23,.58,.42,.9,.58,.32,.16,.53,.34,.65,.54,.16,.33,.28,.76,.35,1.29,.07,.53,.1,1.23,.1,2.12,0,2.14-.06,3.97-.16,5.49-.1,1.52-.22,2.9-.34,4.12-.1,.77-.31,1.25-.63,1.42-.32,.17-.63,.31-.92,.4-.29,.09-.45,.4-.47,.92,.03,.51,.27,.88,.74,1.12,.47,.23,.99,.38,1.58,.45,.58,.06,1.06,.09,1.44,.08,.42,0,.97-.02,1.65-.08,.68-.06,1.29-.22,1.84-.47,.55-.25,.84-.66,.87-1.21-.02-.49-.19-.78-.5-.87-.31-.09-.61-.26-.92-.53-.31-.26-.47-.9-.5-1.92,0-.37-.02-.94-.04-1.71-.02-.77,.01-1.49,.1-2.15,.08-.66,.28-1.02,.57-1.06,.27,.03,.49,.19,.66,.5,.17,.3,.3,.56,.39,.79l1.73,3.88Z"/><path class="cls-3" d="M37.28,1.91c-.02-.52-.2-.92-.56-1.2-.36-.28-.78-.47-1.27-.57-.49-.1-.94-.15-1.36-.14-.54,0-1.16,.05-1.87,.17-.71,.12-1.33,.36-1.88,.72-.54,.36-.83,.89-.85,1.58,.04,.72,.37,1.23,.97,1.53,.6,.3,1.23,.45,1.87,.44,.53,0,1.18-.07,1.95-.21,.77-.15,1.45-.41,2.05-.78,.6-.37,.92-.89,.95-1.55Zm9.11,0c-.02-.52-.2-.92-.56-1.2-.36-.28-.78-.47-1.27-.57-.49-.1-.94-.15-1.36-.14-.54,0-1.16,.05-1.87,.17-.71,.12-1.33,.36-1.87,.72-.54,.36-.83,.89-.85,1.58,.04,.72,.37,1.23,.97,1.53,.6,.3,1.23,.45,1.87,.44,.53,0,1.18-.07,1.95-.21,.77-.15,1.45-.41,2.05-.78,.6-.37,.92-.89,.95-1.55Zm-10.09,5.55c.01-.37-.04-.66-.15-.85-.11-.19-.37-.29-.78-.29-.1,0-.54,.01-1.31,.04-.78,.03-1.66,.11-2.66,.24-.99,.13-1.86,.33-2.61,.6-.75,.27-1.14,.65-1.18,1.12,.01,.47,.12,.76,.32,.9,.2,.13,.44,.27,.71,.4,.27,.13,.5,.43,.71,.88,.2,.46,.31,1.24,.32,2.36-.04,1.52-.01,2.96,.09,4.31,.1,1.35,.51,2.46,1.24,3.32,.73,.86,2.02,1.3,3.87,1.33,.87-.02,1.6-.18,2.18-.46,.59-.29,1.06-.57,1.43-.86,.37-.29,.67-.44,.89-.46,.36,.02,.53,.18,.53,.46,0,.29,.05,.58,.17,.86,.12,.29,.54,.44,1.27,.46,.43,0,1.03-.04,1.78-.12,.75-.08,1.52-.22,2.3-.42,.79-.2,1.45-.46,2-.8,.54-.34,.83-.76,.85-1.26-.02-.45-.16-.73-.43-.86-.26-.12-.53-.27-.79-.43-.26-.16-.41-.53-.43-1.1v-6c0-.48,.01-.95,.03-1.42,.02-.47,.03-.94,.03-1.42,0-.53-.12-.94-.36-1.23-.24-.29-.63-.44-1.16-.44-.31,0-.84,.02-1.59,.07-.75,.05-1.55,.15-2.4,.3-.85,.14-1.58,.35-2.19,.63-.61,.27-.93,.63-.96,1.06,.02,.39,.15,.66,.39,.81,.24,.14,.5,.3,.77,.47,.27,.17,.45,.49,.55,.97,.07,.49,.11,1.02,.12,1.6,0,.58,0,1.12,0,1.62,.02,.5,.02,1.08,0,1.74-.02,.65-.16,1.23-.41,1.72-.26,.49-.74,.75-1.44,.78-.53-.02-.91-.19-1.16-.52-.24-.33-.4-.73-.46-1.2-.06-.47-.09-.91-.08-1.32V7.46Z"/><path class="cls-3" d="M57.88,10.36c.02-2.17,.08-3.99,.19-5.46,.11-1.47,.18-2.4,.19-2.78,.01-.46-.07-.83-.25-1.11-.18-.28-.51-.43-1.01-.44-.14,0-.63,.04-1.45,.14-.83,.1-1.76,.26-2.79,.5-1.04,.24-1.94,.57-2.71,.99-.77,.42-1.18,.95-1.22,1.6,.02,.53,.18,.89,.47,1.08,.3,.19,.62,.4,.96,.64,.35,.24,.6,.71,.77,1.42,.13,.71,.19,1.53,.21,2.44,.01,.91,.01,1.68,0,2.31,0,.52,0,1.2-.01,2.04-.01,.84-.05,1.68-.1,2.49-.06,.82-.15,1.45-.27,1.88-.13,.35-.33,.59-.58,.72-.26,.13-.49,.25-.71,.37-.22,.12-.33,.35-.35,.68,.04,.69,.42,1.18,1.13,1.45,.71,.28,1.5,.44,2.36,.48,.86,.04,1.54,.05,2.03,.04,.47,.01,1.08,0,1.85-.04,.77-.04,1.46-.19,2.09-.45,.62-.26,.95-.72,.99-1.37-.01-.4-.13-.66-.36-.79-.23-.13-.47-.25-.73-.36-.26-.11-.46-.33-.58-.67-.07-.26-.11-.58-.12-.98,0-.39,0-.73,0-1.02v-5.79Z"/><path class="cls-3" d="M69.34,10.36c.02-2.17,.08-3.99,.19-5.46,.11-1.47,.18-2.4,.19-2.78,.01-.46-.07-.83-.25-1.11-.18-.28-.51-.43-1.01-.44-.14,0-.63,.04-1.45,.14-.83,.1-1.76,.26-2.79,.5-1.04,.24-1.94,.57-2.71,.99s-1.18,.95-1.22,1.6c.02,.53,.18,.89,.47,1.08,.3,.19,.62,.4,.96,.64,.35,.24,.6,.71,.77,1.42,.13,.71,.19,1.53,.21,2.44,.01,.91,.01,1.68,0,2.31,0,.52,0,1.2-.01,2.04-.01,.84-.05,1.68-.1,2.49-.06,.82-.15,1.45-.27,1.88-.13,.35-.33,.59-.58,.72-.26,.13-.49,.25-.71,.37-.22,.12-.33,.35-.35,.68,.04,.69,.42,1.18,1.13,1.45,.71,.28,1.5,.44,2.36,.48,.86,.04,1.54,.05,2.03,.04,.46,.01,1.08,0,1.85-.04,.77-.04,1.46-.19,2.09-.45s.95-.72,.99-1.37c-.01-.4-.13-.66-.36-.79-.23-.13-.47-.25-.73-.36-.26-.11-.46-.33-.58-.67-.07-.26-.11-.58-.12-.98,0-.39,0-.73,0-1.02v-5.79Z"/><path class="cls-3" d="M85.82,14.63c.5,.03,.92-.1,1.28-.38s.55-.9,.57-1.86c0-.78-.25-1.64-.77-2.59-.52-.95-1.31-1.77-2.39-2.46-1.08-.7-2.46-1.06-4.15-1.1-1.51,.01-2.9,.36-4.16,1.04-1.26,.68-2.28,1.61-3.04,2.8-.77,1.19-1.16,2.56-1.18,4.1,0,1.31,.31,2.55,.92,3.72,.61,1.17,1.52,2.13,2.73,2.87,1.21,.74,2.71,1.12,4.5,1.15,.93,0,1.92-.18,2.98-.52,1.06-.34,1.96-.81,2.72-1.4,.76-.59,1.16-1.28,1.19-2.05,0-.31-.13-.63-.35-.96-.22-.33-.49-.51-.82-.53-.2,.02-.47,.13-.81,.35-.34,.22-.76,.43-1.27,.65-.51,.22-1.14,.33-1.89,.35-.48,0-.98-.13-1.49-.38-.51-.25-.94-.58-1.3-.99-.35-.41-.54-.87-.56-1.38,.01-.24,.11-.37,.28-.4,.17-.03,.35-.03,.53-.02h6.48Zm-5.64-2.87c-.41,.03-.81,.03-1.19-.01-.38-.04-.58-.32-.6-.82,.01-.5,.19-.95,.53-1.34,.34-.4,.76-.6,1.27-.63,.56,.01,.99,.2,1.29,.55,.31,.36,.46,.81,.47,1.36-.02,.51-.22,.79-.58,.85-.36,.06-.76,.07-1.18,.04Z"/><path class="cls-3" d="M90.41,14.24c0,.46-.02,1.01-.07,1.68-.05,.66-.14,1.2-.25,1.61-.12,.33-.32,.59-.59,.78-.27,.19-.52,.39-.75,.6-.23,.21-.35,.52-.37,.92,.04,.67,.41,1.15,1.1,1.43,.69,.28,1.46,.45,2.31,.51,.85,.05,1.52,.07,2.02,.06,1.68,.03,3.08-.07,4.19-.31,1.11-.24,1.68-.81,1.72-1.72-.03-.57-.23-.93-.6-1.1-.37-.17-.75-.3-1.14-.42-.39-.11-.63-.37-.71-.78-.08-.58-.13-1.15-.18-1.73-.04-.58-.06-1.09-.06-1.55,0-.2,0-.5,0-.9,0-.4,.05-.76,.14-1.1,.09-.34,.28-.52,.55-.54,.25,.02,.5,.17,.76,.44,.26,.27,.58,.55,.96,.82,.39,.27,.9,.42,1.53,.44,1.02-.02,1.87-.37,2.58-1.04,.7-.67,1.07-1.52,1.1-2.54-.01-1.01-.32-1.83-.91-2.47-.59-.64-1.39-.97-2.41-.99-.84,.03-1.49,.23-1.95,.61-.46,.38-.81,.76-1.07,1.14-.25,.38-.49,.58-.72,.61-.24-.02-.39-.15-.43-.39-.05-.24-.07-.46-.07-.66-.03-.5-.12-.84-.26-1.04-.14-.19-.48-.28-1.02-.28-.1,0-.52,.04-1.25,.14-.73,.1-1.56,.26-2.48,.48-.93,.23-1.74,.54-2.43,.93-.69,.39-1.06,.88-1.1,1.47,.02,.56,.18,.88,.48,.96s.59,.23,.89,.44c.3,.21,.46,.77,.48,1.7v1.79Z"/></g></svg>