<svg id="Ebene_1" data-name="Ebene 1" xmlns="http://www.w3.org/2000/svg" viewBox="0 0 200 100"><defs><style>.cls-1{fill:#025da7;}.cls-2{fill:#fdeb03;}.cls-3{fill:#f5f6f7;}</style></defs><title>Unbenannt-1</title><path class="cls-1" d="M100,77.84q-47.1,0-94.21,0C5.15,77.86,5,77.71,5,77.06Q5,50,5,22.85c0-.59.12-0.71,0.71-0.71q94.29,0,188.59,0c0.59,0,.71.12,0.71,0.71q0,27.15,0,54.3c0,0.59-.12.71-0.71,0.71Q147.15,77.83,100,77.84Zm-75.37-36c0-3.25,0-6.49,0-9.74,0-.82-0.26-1-1-1q-5.34.06-10.68,0c-0.8,0-1.05.14-1,1,0,6.15,0,12.29,0,18.44A10.88,10.88,0,0,0,15,58.16,16.38,16.38,0,0,0,34.6,61c3.94-2.29,6.55-5.56,6.65-10.27,0.13-6.29,0-12.58.05-18.87a0.64,0.64,0,0,0-.8-0.77q-5.6,0-11.2,0c-0.59,0-.76.13-0.75,0.75,0,6.23,0,12.46,0,18.7a7.55,7.55,0,0,1-.08,1.29,2,2,0,0,1-2,1.74,2,2,0,0,1-1.82-2.09Q24.63,46.64,24.63,41.81Zm68.68,0.78c0,0.49,0,.77,0,1.05,0,2.47,0,4.94,0,7.41a0.77,0.77,0,0,0,1,1c1.72-.05,3.45,0,5.17,0a0.73,0.73,0,0,0,.93-0.9c0-6.41,0-12.81,0-19.22,0-.91,0-0.91-0.82-0.46C96.34,33.2,93.14,35,90,36.72a1.05,1.05,0,0,1-1.18,0c-3.24-1.79-6.5-3.54-9.74-5.33-0.63-.35-0.74-0.22-0.74.45q0,9.7,0,19.39a0.64,0.64,0,0,0,.77.79c1.92,0,3.85,0,5.77,0,0.71,0,.86-0.24.85-0.9,0-2.5,0-5,0-7.5a0.8,0.8,0,0,1,.14-0.74c0.91,0.6,1.84,1.17,2.72,1.81a1.15,1.15,0,0,0,1.6,0C91.11,44,92.13,43.38,93.31,42.59ZM55.56,39.14c-0.26-.16-0.35-0.2-0.44-0.27l-9.83-7.39a0.6,0.6,0,0,0-.49-0.29c-0.29.1-.15,0.4-0.15,0.6,0,6.49,0,13,0,19.47,0,0.64.25,0.75,0.81,0.75,2,0,4.08,0,6.12,0a0.73,0.73,0,0,0,.91-0.91c-0.05-1.69,0-3.39,0-5.08,0-.72.24-0.72,0.73-0.39l0.43,0.28q4.64,2.89,9.27,5.78c0.45,0.29.68,0.38,0.67-.32q0-9.78,0-19.56c0-.57-0.15-0.74-0.72-0.73-2,0-4,0-5.95,0-1.48,0-1.29-.23-1.3,1.34C55.55,34.62,55.56,36.8,55.56,39.14ZM170.28,52c-0.24-.33-0.33-0.47-0.44-0.61C166.9,47.73,164,44,161,40.39a0.74,0.74,0,0,1,.08-1.25c1.38-1.25,2.72-2.56,4-3.88s2.62-2.77,3.9-4.12c0.08,0,0,0-.07,0h-7.32a1.32,1.32,0,0,0-1,.47L157.08,35l-2.61,2.5c0-2,0-3.82,0-5.62,0-.62-0.13-0.87-0.8-0.85-1.66,0-3.33,0-5,0a0.63,0.63,0,0,0-.78.78q0,9.65,0,19.3c0,0.62.14,0.88,0.81,0.86q2.5-.06,5,0c0.63,0,.78-0.22.77-0.8,0-1.44.07-2.88,0-4.31a2.81,2.81,0,0,1,1.1-2.53c0.42-.36.6-0.36,0.93,0.06,1.54,2,3.21,3.83,4.65,5.86A3.58,3.58,0,0,0,164.71,52C166.49,51.89,168.3,52,170.28,52ZM146.5,52a1,1,0,0,0-.42-0.67c-2-2.21-4.08-4.43-6.16-6.61-0.48-.5-0.4-0.71.11-1.09a7.16,7.16,0,0,0,2.6-3.76c1.23-4.27-2.21-8.69-6.86-8.77-2.9-.05-5.8,0-8.7,0a0.62,0.62,0,0,0-.78.77c0,1.61,0,3.22,0,4.82,0,4.82,0,9.65,0,14.47,0,0.66.16,0.89,0.86,0.87,1.69-.05,3.39-0.06,5.08,0,0.75,0,.91-0.24.89-0.93,0-1.52,0-3,0-4.56a0.55,0.55,0,0,1,.16-0.63l4.81,5.51a1.19,1.19,0,0,0,.89.6h7.53Zm-24.64,0c1,0,2.07,0,3.1,0,0.68,0,.9-0.08.49-0.77q-5.88-9.81-11.71-19.64c-0.39-.66-0.56-0.48-0.87.05-1.16,2-2.36,4-3.55,6q-4.06,6.79-8.12,13.58c-0.37.62-.32,0.8,0.45,0.79,2.09,0,4.19,0,6.29,0a1,1,0,0,0,1.07-.65c0.37-.75.8-1.46,1.17-2.2a0.9,0.9,0,0,1,.94-0.57c1.46,0,2.93,0,4.39,0a1,1,0,0,1,1,.62c0.38,0.74.82,1.45,1.18,2.19a0.94,0.94,0,0,0,1,.6C119.74,52,120.8,52,121.86,52ZM179.55,31.1c-2.9,0-5.8,0-8.7,0-0.75,0-.91.22-0.88,0.92,0.05,1.43.05,2.87,0,4.3,0,0.66.13,0.9,0.84,0.87,1.35-.06,2.7,0,4,0,0.76,0,1,.15,1,1,0,4.33,0,8.67,0,13a0.73,0.73,0,0,0,.93.9c1.84,0,3.67,0,5.51,0a0.77,0.77,0,0,0,1-1c0-4.28,0-8.55,0-12.83,0-.83.13-1.18,1.06-1.11,1.37,0.1,2.75,0,4.13,0,0.58,0,.82-0.12.81-0.75q-0.05-2.28,0-4.56a0.63,0.63,0,0,0-.79-0.77C185.46,31.11,182.51,31.1,179.55,31.1ZM75,41.55h0c0-3.22,0-6.43,0-9.65a0.67,0.67,0,0,0-.83-0.82q-3.23.06-6.46,0a0.66,0.66,0,0,0-.83.81q0,9.65,0,19.29a0.68,0.68,0,0,0,.83.83c2.12,0,4.25,0,6.37,0A0.74,0.74,0,0,0,75,51.11C75,47.93,75,44.74,75,41.55ZM151.5,64.94c-0.05-.84-0.12-1.44-0.12-2a0.87,0.87,0,0,0-.89-1.1,0.89,0.89,0,0,0-.9,1.1,43.46,43.46,0,0,0,.37,4.63,1.06,1.06,0,0,0,.84,1.06,1,1,0,0,0,1.14-.7c0.59-1,1.19-2,1.8-3a0.76,0.76,0,0,1,.54-0.51c0.31,0,.3.37,0.41,0.58s0.28,0.69.44,1c0.5,1.06,1.34,1.15,2,.18a16.6,16.6,0,0,1,1.49-2c0.82-.87.86-0.86,1.28,0.22,0.08,0.21.16,0.43,0.25,0.64,0.79,1.78,1.89,2.21,3.66,1.44l0.63-.28a0.52,0.52,0,0,1,.79.19,1.55,1.55,0,0,0,1.91.58,6.53,6.53,0,0,0,1.5-.63,1.85,1.85,0,0,1,2.26-.13,2.07,2.07,0,0,0,1.26.15,10.85,10.85,0,0,0,4.44-1.23,0.94,0.94,0,0,1,.86-0.21,1.19,1.19,0,0,0,1.58-.64,16.22,16.22,0,0,1,2-2.28c0.58-.58.8-0.46,1.06,0.27,0.67,1.83,1.59,2.41,3.39,2.16A5.88,5.88,0,0,0,188,63.22a0.86,0.86,0,0,0,.34-1.07,0.91,0.91,0,0,0-.71-0.68,1.61,1.61,0,0,0-1,.42c-2.11,1.21-2.65.72-3.15-1.17-0.35-1.33-1.39-1.69-2.61-1a5.07,5.07,0,0,0-1.2,1c-0.34.35-.71,0.68-1.23,1.18,0-2.43-.44-4.64.67-6.72a0.8,0.8,0,0,0-.32-1.18,0.85,0.85,0,0,0-1.26.33,5.91,5.91,0,0,0-.67,1.76,21.16,21.16,0,0,0-.11,6.17c0,0.28.17,0.58-.16,0.77a8.82,8.82,0,0,1-4.52,1.47c-0.64,0-.88-0.39-0.56-1,0.59-1.1,1.2-2.17,2.7-2.15a0.88,0.88,0,0,0,.87-0.91,1,1,0,0,0-.71-1,1.87,1.87,0,0,0-1.64.29,5.84,5.84,0,0,0-2.77,3c-0.45,1.37-1.57,1.72-2.58,2.27-0.55.3-.94,0.07-1-0.58a6.34,6.34,0,0,1,.24-2.55c0.18-.57.23-1.09-0.5-1.31a1,1,0,0,0-1.28.91c-0.12.73-.14,1.48-0.21,2.23a0.64,0.64,0,0,1-.35.71c-1.91.76-1.92,1.35-2.82-1-0.07-.19-0.13-0.38-0.2-0.57-0.54-1.66-1.52-2-2.88-.84A10.53,10.53,0,0,0,157.26,63c-0.3.33-.57,0.69-0.92,1.13L156,63.36c-0.7-1.57-1.81-1.77-3-.48C152.5,63.44,152.1,64.11,151.5,64.94ZM99.34,69.81c-0.15-2.4-.46-4.62.6-6.74a0.79,0.79,0,0,0-.35-1.17,0.88,0.88,0,0,0-1.25.4,6.82,6.82,0,0,0-.75,2.27,22.58,22.58,0,0,0,0,5.75,0.64,0.64,0,0,1-.18.78c-1.18.58-2.27,1.37-3.66,1.39a0.59,0.59,0,0,1-.72-0.3c-0.06-.31.32-0.31,0.54-0.4a4.53,4.53,0,0,0,2.94-4,1.77,1.77,0,0,0-.9-1.82,2.07,2.07,0,0,0-2.17.4,3.1,3.1,0,0,0-.53.56,8,8,0,0,0-1.79,4.57,2.43,2.43,0,0,0,3,2.82,9.24,9.24,0,0,0,3.39-1.19,1,1,0,0,1,1-.24,1.08,1.08,0,0,0,1.36-.6A13.52,13.52,0,0,1,101.74,70c0.73-.71.8-0.68,1.17,0.27,0.75,1.94,2.05,2.58,4,1.92a1.48,1.48,0,0,1,1.06,0,0.72,0.72,0,0,0,1.05-.66c0-1.44,1-2,2-2.66a2.42,2.42,0,0,1,1.81-.66,0.81,0.81,0,0,0,1.16-.75,1,1,0,0,0-1-1.16,3.51,3.51,0,0,0-2.2.6c-0.63.36-1.24,0.76-1.95,1.2a3.89,3.89,0,0,1,0-.53,0.82,0.82,0,0,0-.73-1.12c-0.69-.09-0.89.33-0.95,0.93a9.11,9.11,0,0,0,0,2,0.76,0.76,0,0,1-.11.73,1.49,1.49,0,0,1-2.46-.45,8,8,0,0,1-.29-0.81c-0.44-1.45-1.5-1.87-2.77-1.06A15.61,15.61,0,0,0,99.34,69.81Zm-12.26-1A40.61,40.61,0,0,0,89,74.22a1.46,1.46,0,0,0,1.05.93,0.92,0.92,0,0,0,1.13-.56,0.82,0.82,0,0,0-.34-1.18,1.24,1.24,0,0,1-.61-0.88,64.15,64.15,0,0,1-2-6.48,0.78,0.78,0,0,0-.83-0.71,1,1,0,0,0-1.06.68A9,9,0,0,1,85,68.61c-0.85,1.24-1.37,1.24-2.4.1a10.11,10.11,0,0,1-2.09-4.38,0.82,0.82,0,0,0-1-.8,0.93,0.93,0,0,0-.79,1.14,40.72,40.72,0,0,1,.21,7.82,12.86,12.86,0,0,0,.19,3.17,0.8,0.8,0,0,0,.94.78,0.9,0.9,0,0,0,.78-1.05c0-.14-0.05-0.28-0.05-0.43,0-1.76,0-3.53,0-5.35C84,72.28,84.23,72.25,87.08,68.85Zm51-3.68a3.39,3.39,0,0,1,0-.5c0.08-.6,0-1.13-0.74-1.2s-0.91.51-1,1.12a10.86,10.86,0,0,0,0,2.15c0.07,0.92-.69.94-1.25,1.11s-0.75-.3-0.87-0.78a6.61,6.61,0,0,1,0-1.88,0.85,0.85,0,0,0-.61-0.93,0.81,0.81,0,0,0-1,.3,3,3,0,0,0-.27.72,6.79,6.79,0,0,1-2.27,3.37c-0.75.58-1.23,0.41-1.41-.48a7.32,7.32,0,0,1,.05-2.74c0.09-.52.1-1.1-0.6-1.22a1,1,0,0,0-1.13.91,10,10,0,0,0-.11,3.26c0.24,2.37,2.21,3.24,4.16,1.86a10,10,0,0,0,1.62-1.64c1.2,1.38,1.89,1.53,3.63.83a1.13,1.13,0,0,1,.73-0.19c0.86,0.21,1.11-.29,1.2-1,0.15-1.3,2.45-3.12,3.77-2.94a0.84,0.84,0,0,0,1.15-.77,1,1,0,0,0-1-1.15,3.14,3.14,0,0,0-1.59.3A16.19,16.19,0,0,0,138.08,65.17ZM126.61,59a1.88,1.88,0,0,0-2.48-2,4,4,0,0,0-2.24,1.91,10,10,0,0,0-1.25,4.43,1,1,0,0,1-.94,1.22,0.88,0.88,0,0,0-.71,1.18,0.78,0.78,0,0,0,1,.66c0.57-.13.52,0.19,0.54,0.55a38,38,0,0,0,.5,4.88,7.47,7.47,0,0,0,1,3.09,1,1,0,0,0,1.49.36,0.93,0.93,0,0,0,.1-1.5,2.71,2.71,0,0,1-.57-1.23,31.4,31.4,0,0,1-.71-6,0.68,0.68,0,0,1,.63-0.82c0.73-.15,1.45-0.34,2.17-0.53a0.93,0.93,0,0,0,.68-1.28,0.77,0.77,0,0,0-1.15-.53,5.34,5.34,0,0,1-.59.12c-1.79.38-1.82,0.37-1.47-1.41a4.69,4.69,0,0,1,1.46-2.94c0.39-.32.71-0.43,0.85,0.19a0.78,0.78,0,0,0,1,.65A0.89,0.89,0,0,0,126.61,59Zm41.48-1.57a1.24,1.24,0,0,0-1.27-1.31A1.35,1.35,0,1,0,168.09,57.43Zm-38.74,3.76a1,1,0,0,0-1,1.16,1,1,0,0,0,1,1.09A1.14,1.14,0,0,0,129.35,61.19Zm3.79,0.93a1,1,0,0,0-1-1.19A0.94,0.94,0,0,0,131.11,62,1,1,0,1,0,133.14,62.12Z"/><path class="cls-2" d="M24.63,41.81q0,4.83,0,9.65a2,2,0,0,0,1.82,2.09,2,2,0,0,0,2-1.74,7.55,7.55,0,0,0,.08-1.29c0-6.23,0-12.46,0-18.7,0-.62.16-0.75,0.75-0.75q5.6,0,11.2,0a0.64,0.64,0,0,1,.8.77c0,6.29.08,12.58-.05,18.87-0.1,4.7-2.71,8-6.65,10.27A16.38,16.38,0,0,1,15,58.16a10.88,10.88,0,0,1-3.06-7.64c0-6.15,0-12.29,0-18.44,0-.87.25-1,1-1q5.34,0.07,10.68,0c0.77,0,1,.18,1,1C24.61,35.32,24.63,38.57,24.63,41.81Z"/><path class="cls-2" d="M93.31,42.59c-1.18.79-2.2,1.42-3.16,2.14a1.15,1.15,0,0,1-1.6,0c-0.88-.64-1.81-1.21-2.72-1.81a0.8,0.8,0,0,0-.14.74c0,2.5,0,5,0,7.5,0,0.66-.14.91-0.85,0.9-1.92,0-3.85,0-5.77,0a0.64,0.64,0,0,1-.77-0.79q0-9.7,0-19.39c0-.67.11-0.8,0.74-0.45,3.24,1.79,6.5,3.53,9.74,5.33a1.05,1.05,0,0,0,1.18,0c3.18-1.77,6.38-3.52,9.57-5.28,0.81-.45.82-0.45,0.82,0.46,0,6.41,0,12.81,0,19.22a0.73,0.73,0,0,1-.93.9C97.71,52,96,52,94.26,52a0.77,0.77,0,0,1-1-1c0-2.47,0-4.94,0-7.41C93.31,43.37,93.31,43.08,93.31,42.59Z"/><path class="cls-2" d="M55.56,39.14c0-2.34,0-4.52,0-6.7,0-1.57-.18-1.33,1.3-1.34,2,0,4,0,5.95,0,0.57,0,.72.16,0.72,0.73q0,9.78,0,19.56c0,0.7-.22.61-0.67,0.32q-4.63-2.9-9.27-5.78l-0.43-.28c-0.49-.32-0.74-0.32-0.73.39,0,1.69,0,3.39,0,5.08a0.73,0.73,0,0,1-.91.91c-2,0-4.08,0-6.12,0-0.56,0-.81-0.1-0.81-0.75,0-6.49,0-13,0-19.47,0-.21-0.14-0.5.15-0.6a0.6,0.6,0,0,1,.49.29l9.83,7.39C55.21,38.94,55.31,39,55.56,39.14Z"/><path class="cls-2" d="M170.28,52c-2,0-3.79-.12-5.57,0a3.58,3.58,0,0,1-3.57-1.73c-1.45-2-3.11-3.9-4.65-5.86C156.14,44,156,44,155.55,44.39a2.81,2.81,0,0,0-1.1,2.53c0.11,1.43,0,2.87,0,4.31,0,0.58-.14.82-0.77,0.8q-2.5-.06-5,0c-0.67,0-.81-0.24-0.81-0.86q0-9.65,0-19.3a0.63,0.63,0,0,1,.78-0.78c1.67,0,3.33,0,5,0,0.67,0,.81.23,0.8,0.85,0,1.8,0,3.59,0,5.62l2.61-2.5,3.58-3.49a1.32,1.32,0,0,1,1-.47H169c0.07,0,.15,0,0.07,0-1.28,1.35-2.56,2.77-3.9,4.12s-2.65,2.63-4,3.88a0.74,0.74,0,0,0-.08,1.25c3,3.66,5.89,7.34,8.83,11C169.95,51.54,170,51.68,170.28,52Z"/><path class="cls-2" d="M146.5,52H139a1.19,1.19,0,0,1-.89-0.6l-4.81-5.51a0.55,0.55,0,0,0-.16.63c0,1.52,0,3,0,4.56,0,0.69-.14,1-0.89.93-1.69-.06-3.39-0.05-5.08,0-0.69,0-.86-0.21-0.86-0.87,0-4.82,0-9.65,0-14.47,0-1.61,0-3.22,0-4.82a0.62,0.62,0,0,1,.78-0.77c2.9,0,5.8,0,8.7,0,4.65,0.08,8.1,4.5,6.86,8.77a7.16,7.16,0,0,1-2.6,3.76c-0.51.39-.59,0.6-0.11,1.09,2.08,2.18,4.12,4.4,6.16,6.61A1,1,0,0,1,146.5,52Zm-13.89-13.3c0,1.62,0,1.62,1.63,1.59h0.09A1.5,1.5,0,0,0,136,38.72a1.54,1.54,0,0,0-1.65-1.65C132.61,37,132.61,37,132.61,38.71Z"/><path class="cls-2" d="M121.86,52c-1.06,0-2.13,0-3.19,0a0.94,0.94,0,0,1-1-.6c-0.37-.74-0.81-1.45-1.18-2.19a1,1,0,0,0-1-.62c-1.46,0-2.93,0-4.39,0a0.9,0.9,0,0,0-.94.57c-0.36.75-.8,1.46-1.17,2.2a1,1,0,0,1-1.07.65c-2.09,0-4.19,0-6.29,0-0.77,0-.82-0.17-0.45-0.79q4.08-6.78,8.12-13.58c1.19-2,2.39-4,3.55-6,0.31-.53.48-0.71,0.87-0.05q5.83,9.83,11.71,19.64c0.41,0.69.2,0.79-.49,0.77C123.93,52,122.9,52,121.86,52Zm-8.51-10.64-2,3.65h3.95Z"/><path class="cls-2" d="M179.55,31.1c3,0,5.91,0,8.87,0a0.63,0.63,0,0,1,.79.77q-0.05,2.28,0,4.56c0,0.63-.23.77-0.81,0.75-1.38,0-2.76.06-4.13,0-0.93-.06-1.07.28-1.06,1.11,0,4.28,0,8.55,0,12.83a0.77,0.77,0,0,1-1,1c-1.84-.05-3.67,0-5.51,0a0.73,0.73,0,0,1-.93-0.9c0-4.33,0-8.67,0-13,0-.83-0.26-1-1-1-1.35.05-2.7,0-4,0C170.1,37.2,170,37,170,36.3c0-1.43.05-2.87,0-4.3,0-.7.14-0.93,0.88-0.92C173.75,31.13,176.65,31.1,179.55,31.1Z"/><path class="cls-2" d="M75,41.55c0,3.19,0,6.37,0,9.56a0.74,0.74,0,0,1-.93.91c-2.12,0-4.25,0-6.37,0a0.68,0.68,0,0,1-.83-0.83q0-9.65,0-19.29a0.66,0.66,0,0,1,.83-0.81q3.23,0.05,6.46,0a0.67,0.67,0,0,1,.83.82c0,3.22,0,6.43,0,9.65h0Z"/><path class="cls-3" d="M151.5,64.94c0.6-.83,1-1.49,1.51-2.06,1.16-1.29,2.27-1.09,3,.48l0.36,0.79c0.35-.43.62-0.79,0.92-1.13a10.53,10.53,0,0,1,1.13-1.18c1.36-1.12,2.34-.82,2.88.84,0.06,0.19.12,0.38,0.2,0.57,0.91,2.35.92,1.75,2.82,1a0.64,0.64,0,0,0,.35-0.71c0.07-.74.09-1.49,0.21-2.23a1,1,0,0,1,1.28-.91c0.73,0.22.68,0.74,0.5,1.31a6.34,6.34,0,0,0-.24,2.55c0.06,0.65.46,0.88,1,.58,1-.56,2.13-0.91,2.58-2.27a5.84,5.84,0,0,1,2.77-3,1.87,1.87,0,0,1,1.64-.29,1,1,0,0,1,.71,1,0.88,0.88,0,0,1-.87.91c-1.51,0-2.11,1.06-2.7,2.15-0.33.61-.08,1,0.56,1A8.82,8.82,0,0,0,176.61,63c0.34-.19.19-0.49,0.16-0.77a21.16,21.16,0,0,1,.11-6.17,5.91,5.91,0,0,1,.67-1.76,0.85,0.85,0,0,1,1.26-.33,0.8,0.8,0,0,1,.32,1.18c-1.11,2.08-.65,4.29-0.67,6.72,0.52-.5.89-0.82,1.23-1.18a5.07,5.07,0,0,1,1.2-1c1.22-.66,2.26-0.3,2.61,1,0.5,1.88,1,2.37,3.15,1.17a1.61,1.61,0,0,1,1-.42,0.91,0.91,0,0,1,.71.68,0.86,0.86,0,0,1-.34,1.07,5.88,5.88,0,0,1-2.56,1.16c-1.8.24-2.72-.33-3.39-2.16-0.27-.73-0.48-0.85-1.06-0.27a16.22,16.22,0,0,0-2,2.28,1.19,1.19,0,0,1-1.58.64,0.94,0.94,0,0,0-.86.21,10.85,10.85,0,0,1-4.44,1.23,2.07,2.07,0,0,1-1.26-.15,1.85,1.85,0,0,0-2.26.13,6.53,6.53,0,0,1-1.5.63,1.55,1.55,0,0,1-1.91-.58,0.52,0.52,0,0,0-.79-0.19l-0.63.28C162,67.2,161,66.77,160.16,65c-0.09-.21-0.17-0.43-0.25-0.64-0.42-1.07-.46-1.08-1.28-0.22a16.6,16.6,0,0,0-1.49,2c-0.67,1-1.52.89-2-.18-0.16-.34-0.28-0.69-0.44-1s-0.09-.58-0.41-0.58a0.76,0.76,0,0,0-.54.51c-0.61,1-1.22,2-1.8,3a1,1,0,0,1-1.14.7,1.06,1.06,0,0,1-.84-1.06,43.46,43.46,0,0,1-.37-4.63,0.89,0.89,0,0,1,.9-1.1,0.87,0.87,0,0,1,.89,1.1C151.38,63.5,151.45,64.1,151.5,64.94Z"/><path class="cls-3" d="M99.34,69.81a15.61,15.61,0,0,1,2.23-2c1.27-.81,2.33-0.39,2.77,1.06a8,8,0,0,0,.29.81,1.49,1.49,0,0,0,2.46.45,0.76,0.76,0,0,0,.11-0.73,9.11,9.11,0,0,1,0-2c0.06-.59.26-1,0.95-0.93a0.82,0.82,0,0,1,.73,1.12,3.89,3.89,0,0,0,0,.53c0.71-.44,1.31-0.84,1.95-1.2a3.51,3.51,0,0,1,2.2-.6,1,1,0,0,1,1,1.16,0.81,0.81,0,0,1-1.16.75,2.42,2.42,0,0,0-1.81.66c-1,.63-2,1.23-2,2.66a0.72,0.72,0,0,1-1.05.66,1.48,1.48,0,0,0-1.06,0c-2,.66-3.28,0-4-1.92-0.36-.95-0.43-1-1.17-0.27a13.52,13.52,0,0,0-1.95,2.29,1.08,1.08,0,0,1-1.36.6,1,1,0,0,0-1,.24,9.24,9.24,0,0,1-3.39,1.19,2.43,2.43,0,0,1-3-2.82A8,8,0,0,1,92.92,67a3.1,3.1,0,0,1,.53-0.56,2.07,2.07,0,0,1,2.17-.4,1.77,1.77,0,0,1,.9,1.82,4.53,4.53,0,0,1-2.94,4c-0.22.09-.6,0.1-0.54,0.4a0.59,0.59,0,0,0,.72.3c1.39,0,2.48-.82,3.66-1.39a0.64,0.64,0,0,0,.18-0.78,22.58,22.58,0,0,1,0-5.75,6.82,6.82,0,0,1,.75-2.27,0.88,0.88,0,0,1,1.25-.4,0.79,0.79,0,0,1,.35,1.17C98.88,65.19,99.19,67.41,99.34,69.81Zm-4.6-2a2.73,2.73,0,0,0-1.34,1.77A1.58,1.58,0,0,0,94.74,67.77Z"/><path class="cls-3" d="M87.08,68.85c-2.85,3.4-3,3.42-6.33.77,0,1.82,0,3.59,0,5.35,0,0.14,0,.28.05,0.43A0.9,0.9,0,0,1,80,76.45a0.8,0.8,0,0,1-.94-0.78,12.86,12.86,0,0,1-.19-3.17,40.72,40.72,0,0,0-.21-7.82,0.93,0.93,0,0,1,.79-1.14,0.82,0.82,0,0,1,1,.8,10.11,10.11,0,0,0,2.09,4.38c1,1.14,1.55,1.14,2.4-.1A9,9,0,0,0,86.29,66a1,1,0,0,1,1.06-.68,0.78,0.78,0,0,1,.83.71,64.15,64.15,0,0,0,2,6.48,1.24,1.24,0,0,0,.61.88,0.82,0.82,0,0,1,.34,1.18,0.92,0.92,0,0,1-1.13.56A1.46,1.46,0,0,1,89,74.22,40.61,40.61,0,0,1,87.08,68.85Z"/><path class="cls-3" d="M138.08,65.17a16.19,16.19,0,0,1,2.53-1.51,3.14,3.14,0,0,1,1.59-.3,1,1,0,0,1,1,1.15,0.84,0.84,0,0,1-1.15.77c-1.32-.18-3.61,1.65-3.77,2.94-0.09.73-.34,1.24-1.2,1a1.13,1.13,0,0,0-.73.19c-1.74.7-2.43,0.55-3.63-.83a10,10,0,0,1-1.62,1.64c-1.95,1.38-3.92.51-4.16-1.86a10,10,0,0,1,.11-3.26,1,1,0,0,1,1.13-.91c0.7,0.12.69,0.7,0.6,1.22a7.32,7.32,0,0,0-.05,2.74c0.19,0.89.66,1.06,1.41,0.48a6.79,6.79,0,0,0,2.27-3.37,3,3,0,0,1,.27-0.72,0.81,0.81,0,0,1,1-.3,0.85,0.85,0,0,1,.61.93,6.61,6.61,0,0,0,0,1.88c0.12,0.48.23,1,.87,0.78s1.32-.19,1.25-1.11a10.86,10.86,0,0,1,0-2.15c0.07-.61.18-1.19,1-1.12s0.81,0.59.74,1.2A3.39,3.39,0,0,0,138.08,65.17Z"/><path class="cls-3" d="M126.61,59a0.89,0.89,0,0,1-.67,1.05,0.78,0.78,0,0,1-1-.65c-0.15-.62-0.46-0.51-0.85-0.19a4.69,4.69,0,0,0-1.46,2.94c-0.34,1.78-.32,1.79,1.47,1.41a5.34,5.34,0,0,0,.59-0.12,0.77,0.77,0,0,1,1.15.53,0.93,0.93,0,0,1-.68,1.28c-0.72.19-1.44,0.38-2.17,0.53a0.68,0.68,0,0,0-.63.82,31.4,31.4,0,0,0,.71,6,2.71,2.71,0,0,0,.57,1.23,0.93,0.93,0,0,1-.1,1.5,1,1,0,0,1-1.49-.36,7.47,7.47,0,0,1-1-3.09,38,38,0,0,1-.5-4.88c0-.36,0-0.69-0.54-0.55a0.78,0.78,0,0,1-1-.66,0.88,0.88,0,0,1,.71-1.18,1,1,0,0,0,.94-1.22,10,10,0,0,1,1.25-4.43A4,4,0,0,1,124.13,57,1.88,1.88,0,0,1,126.61,59Z"/><path class="cls-3" d="M168.09,57.43a1.22,1.22,0,1,1-1.27-1.31A1.24,1.24,0,0,1,168.09,57.43Z"/><path class="cls-3" d="M129.35,61.19a1.14,1.14,0,0,1,0,2.26,1,1,0,0,1-1-1.09A1,1,0,0,1,129.35,61.19Z"/><path class="cls-3" d="M133.14,62.12a1,1,0,1,1-2-.13,0.94,0.94,0,0,1,1.05-1.07A1,1,0,0,1,133.14,62.12Z"/><path class="cls-1" d="M132.61,38.71c0-1.68,0-1.68,1.7-1.64A1.54,1.54,0,0,1,136,38.72a1.5,1.5,0,0,1-1.63,1.58h-0.09C132.61,40.33,132.61,40.33,132.61,38.71Z"/><path class="cls-1" d="M113.35,41.37l2,3.65h-3.95Z"/><path class="cls-1" d="M94.74,67.77a1.58,1.58,0,0,1-1.34,1.77A2.73,2.73,0,0,1,94.74,67.77Z"/></svg>